<?xml version="1.0" encoding="UTF-8"?>
<svg version="1.1" xmlns="http://www.w3.org/2000/svg" width="500" height="500">
<path d="M0 0 C165 0 330 0 500 0 C500 165 500 330 500 500 C335 500 170 500 0 500 C0 335 0 170 0 0 Z " fill="#5E17EB" transform="translate(0,0)"/>
<path d="M0 0 C2.49506227 2.15534123 4.77395954 4.38044004 7.01953125 6.79296875 C7.65117187 7.45554687 8.2828125 8.118125 8.93359375 8.80078125 C22.73457603 24.79046557 24.16770111 45.35553498 24.18066406 65.45751953 C24.18529957 67.13892219 24.1903252 68.82032381 24.19570923 70.50172424 C24.20876487 75.0495737 24.21526478 79.59740844 24.21971989 84.14527369 C24.22266175 86.99360886 24.22676861 89.84194011 24.23122406 92.69027328 C24.24488111 101.62248817 24.25455647 110.55469397 24.25842595 119.48691857 C24.26290214 129.75994831 24.28043722 140.03284471 24.30942655 150.30583394 C24.33111818 158.27221637 24.34113421 166.23856148 24.34246707 174.2049731 C24.34350977 178.95110461 24.34930262 183.69711047 24.36728668 188.4432106 C24.38389735 192.91338792 24.3858606 197.38334685 24.37714767 201.85354424 C24.37638419 203.48239036 24.38062753 205.11124888 24.39060593 206.74006462 C24.52495055 230.06123102 18.78404456 252.0783696 2.42578125 269.47265625 C-5.05791633 276.68907892 -13.18893276 280.51627364 -22.98046875 283.79296875 C-24.02074219 284.14681641 -24.02074219 284.14681641 -25.08203125 284.5078125 C-43.98346029 290.41990332 -68.84103384 288.26735851 -86.24560547 279.2487793 C-102.3706371 270.23867298 -111.1275242 256.05688659 -116.98046875 238.79296875 C-117.31304687 237.92542969 -117.645625 237.05789063 -117.98828125 236.1640625 C-121.12315351 225.51290203 -121.26945752 214.84527957 -121.23925781 203.84790039 C-121.24197361 202.17266183 -121.24553782 200.49742447 -121.24987793 198.82218933 C-121.25893495 194.30561197 -121.25548529 189.78912678 -121.24911976 185.27254796 C-121.24402408 180.52474946 -121.24876114 175.77695838 -121.25189209 171.02915955 C-121.25552175 163.05791826 -121.25075934 155.08671414 -121.24121094 147.11547852 C-121.23033207 137.92802228 -121.2338519 128.74065486 -121.24486375 119.55320078 C-121.25396968 111.63604066 -121.25520568 103.71890712 -121.24998641 95.80174345 C-121.24688435 91.08593921 -121.24640839 86.37017657 -121.25305939 81.65437508 C-121.25888039 77.21784034 -121.2547499 72.78141894 -121.24327087 68.34489632 C-121.24064936 66.72650337 -121.24134586 65.10810071 -121.2457962 63.48971176 C-121.29993536 41.78333511 -117.7601697 21.04212255 -102.41796875 4.54296875 C-76.70336871 -19.7996633 -27.97868373 -20.7181603 0 0 Z " fill="#FEFEFE" transform="translate(131.98046875,102.20703125)"/>
<path d="M0 0 C33 0 66 0 100 0 C101.72614692 16.11070456 103.45100778 32.21108815 104.98950195 48.33886719 C105.16726869 50.18988273 105.34517059 52.04088529 105.52319336 53.89187622 C105.99795046 58.83224015 106.47081112 63.77278378 106.94324517 68.71337032 C107.44785384 73.98717683 107.9541739 79.26081909 108.46025085 84.53448486 C109.31268893 93.4200246 110.16394848 102.30567658 111.0144043 111.19140625 C111.87338266 120.1661163 112.73335206 129.14073055 113.59448242 138.11523438 C116.40529002 167.40930214 119.20953423 196.70398695 122 226 C122.12812277 227.34483522 122.12812277 227.34483522 122.25883389 228.71683884 C123.24765498 239.09704385 124.23356164 249.47751657 125.21291161 259.85861969 C125.47124999 262.5966236 125.73059087 265.33452942 125.99086952 268.07234955 C126.33889419 271.73845137 126.68396259 275.40481837 127.02807617 279.07128906 C127.12852171 280.12353416 127.22896725 281.17577927 127.33245659 282.25991058 C127.42171976 283.21830086 127.51098293 284.17669113 127.60295105 285.16412354 C127.71900586 286.39481253 127.71900586 286.39481253 127.8374052 287.65036392 C128.00657371 290.09499581 128 292.54952187 128 295 C109.52 295 91.04 295 72 295 C71.34 288.173125 70.68 281.34625 70 274.3125 C69.79117188 272.16532471 69.58234375 270.01814941 69.3671875 267.8059082 C69.20293673 266.09588396 69.03886236 264.38584276 68.875 262.67578125 C68.74544922 261.3538678 68.74544922 261.3538678 68.61328125 260.00524902 C68.49146484 258.72708313 68.49146484 258.72708313 68.3671875 257.4230957 C68.26059814 256.32056206 68.26059814 256.32056206 68.15185547 255.195755 C67.98633099 252.80235285 68 250.39911906 68 248 C56.12 248 44.24 248 32 248 C31.855625 252.33125 31.71125 256.6625 31.5625 261.125 C30.6701956 286.64902202 30.6701956 286.64902202 29 295 C10.19 295 -8.62 295 -28 295 C-28 284.8749221 -28 284.8749221 -27.5559845 280.2699585 C-27.45700206 279.2216174 -27.35801962 278.17327631 -27.25603771 277.0931673 C-27.14552232 275.96897483 -27.03500692 274.84478235 -26.92114258 273.68652344 C-26.80521665 272.47220485 -26.68929071 271.25788626 -26.56985188 270.00677013 C-26.24967031 266.66220279 -25.92566269 263.31804767 -25.59995317 259.9740169 C-25.24983968 256.36989987 -24.90464837 252.76531091 -24.55880737 249.16078186 C-23.88368683 242.13275456 -23.2039107 235.10518507 -22.52248502 228.0777666 C-21.97014794 222.38048688 -21.41968639 216.68302872 -20.87051392 210.98544312 C-20.79238726 210.17491071 -20.7142606 209.3643783 -20.63376647 208.5292843 C-20.47523172 206.88450029 -20.31669889 205.2397161 -20.15816796 203.59493172 C-18.27752453 184.08669569 -16.3863697 164.57948335 -14.4924469 145.07253265 C-14.08540075 140.87997993 -13.67855168 136.6874081 -13.27177912 132.49482882 C-11.29564502 112.12704724 -9.31562838 91.75964722 -7.32920676 71.39286625 C-6.97225176 67.73299368 -6.61542242 64.07310895 -6.25891495 60.41319275 C-5.44846498 52.09314592 -4.63649817 43.77325049 -3.82187271 35.45361137 C-3.57641294 32.94464583 -3.33146346 30.4356303 -3.08706284 27.92656136 C-2.754435 24.51314919 -2.41984584 21.09993495 -2.0847168 17.68676758 C-1.98871594 16.69733028 -1.89271509 15.70789299 -1.79380512 14.68847275 C-1.70330985 13.77108952 -1.61281458 12.85370628 -1.51957703 11.90852356 C-1.44281581 11.12381589 -1.36605459 10.33910822 -1.28696728 9.53062153 C-0.92576164 6.34532884 -0.45335547 3.17348828 0 0 Z " fill="#FEFEFE" transform="translate(367,91)"/>
<path d="M0 0 C19.14 0 38.28 0 58 0 C58.99 6.6 59.98 13.2 61 20 C61.474375 22.43375 61.94875 24.8675 62.4375 27.375 C64.17481389 36.33302476 65.27486809 45.36524351 66.44238281 54.41235352 C67.65675667 63.71345881 69.07485827 72.96007326 70.69311523 82.19921875 C71.66700278 87.79118592 72.42999445 93.35176317 73 99 C75.59957701 80.72112237 78.12678656 62.44093322 80.30200195 44.10626221 C82.04939805 29.38235286 84.01240545 14.69400259 86 0 C105.14 0 124.28 0 144 0 C142.87592522 13.48889742 142.87592522 13.48889742 141.80078125 18.79296875 C141.56456055 19.98075928 141.32833984 21.1685498 141.08496094 22.39233398 C140.83004883 23.64473877 140.57513672 24.89714355 140.3125 26.1875 C139.75814034 28.97325367 139.20926824 31.76008283 138.66015625 34.546875 C138.51988007 35.25589462 138.37960388 35.96491425 138.2350769 36.69541931 C136.16013292 47.2083838 134.27862852 57.75676672 132.39051819 68.30456543 C131.31164347 74.31336231 130.20262907 80.3163352 129.08862305 86.31871033 C128.15788363 91.34627113 127.23786104 96.37576534 126.31921387 101.4055481 C125.86072485 103.90331357 125.39799635 106.400305 124.93078613 108.89645386 C121.67978011 126.28705938 119.41840329 141.10648093 123.4375 158.5625 C123.84426699 160.42373313 124.25089773 162.28499804 124.65432739 164.1469574 C124.94875665 165.50533238 125.24475836 166.86336733 125.54220581 168.22108459 C127.45609792 176.99436652 129.17429527 185.80702853 130.91662598 194.6156311 C133.79225742 209.14166162 136.73875814 223.64482596 139.89355469 238.11303711 C142.60088161 250.61401474 144.98909588 263.17638824 147.36914062 275.74316406 C148.08088581 279.41757613 148.85275761 283.07717701 149.65917969 286.73193359 C150 289 150 289 150 295 C130.53 295 111.06 295 91 295 C86.78974613 270.49632246 82.6526541 245.9872445 78.71289062 221.43896484 C77.98315795 216.89246879 77.24973803 212.34657181 76.515625 207.80078125 C75.34224995 200.53409537 74.17047445 193.26715376 73 186 C72.67 186 72.34 186 72 186 C68.35137147 207.15265994 64.75329431 228.31243057 61.3125 249.5 C61.17456024 250.34905914 61.03662048 251.19811829 60.89450073 252.07290649 C58.57255254 266.37814077 56.28967209 280.68954946 54 295 C34.2 295 14.4 295 -6 295 C-4.87673708 282.64410793 -4.87673708 282.64410793 -3.87109375 278.2421875 C-3.64478271 277.22552002 -3.41847168 276.20885254 -3.18530273 275.16137695 C-2.93852783 274.07687256 -2.69175293 272.99236816 -2.4375 271.875 C0.24826309 259.72131938 2.69752599 247.53229666 5.0625 235.3125 C5.41229869 233.50902257 5.76215204 231.70555574 6.11206055 229.90209961 C6.78149096 226.45014204 7.45024406 222.99805405 8.11865234 219.54589844 C9.19172979 214.00729623 10.27372417 208.47057077 11.375 202.9375 C11.55321289 202.03950684 11.73142578 201.14151367 11.91503906 200.21630859 C13.18110339 193.90593325 14.50350026 187.60866919 15.8427124 181.3134613 C16.76918608 176.95640437 17.69011076 172.59817872 18.61138916 168.24002075 C19.30108257 164.99128082 19.99981712 161.74456953 20.69873047 158.49780273 C21.12901407 156.4660748 21.5588817 154.43425871 21.98828125 152.40234375 C22.29257301 151.00846436 22.29257301 151.00846436 22.60301208 149.58642578 C24.55851265 140.24012386 23.93527087 132.48899144 22.12890625 123.19921875 C21.93132721 122.15012833 21.73374817 121.1010379 21.53018188 120.02015686 C21.10328826 117.75655202 20.67322963 115.49354223 20.24032593 113.2310791 C19.08017665 107.165981 17.94347899 101.09648186 16.8046875 95.02734375 C16.57039536 93.78171661 16.33610321 92.53608948 16.0947113 91.25271606 C13.69120139 78.43610019 11.43034652 65.59553624 9.1875 52.75 C6.68717318 38.44461462 4.16838071 24.14999993 1.3190918 9.90917969 C1.14031494 9.01102539 0.96153809 8.11287109 0.77734375 7.1875 C0.62515381 6.43855469 0.47296387 5.68960938 0.31616211 4.91796875 C0 3 0 3 0 0 Z " fill="#FEFEFE" transform="translate(178,91)"/>
<path d="M0 0 C5.28764739 4.98549611 6.44073465 11.11947979 6.68197632 18.18968201 C6.71429039 21.02867809 6.69595786 23.86582259 6.67333984 26.70483398 C6.67548891 28.27612626 6.67937136 29.84741696 6.68484497 31.41870117 C6.69449436 35.66473042 6.67928953 39.91033565 6.65893888 44.15631366 C6.64129221 48.61324199 6.64489447 53.07015871 6.6456604 57.52711487 C6.64379051 65.01106807 6.62647053 72.49485856 6.59912109 79.97875977 C6.56768519 88.61238813 6.55712474 97.2458384 6.5585922 105.87951988 C6.55994688 115.0966317 6.54604263 124.31367551 6.52769899 133.53076673 C6.52345115 136.17509488 6.52201865 138.81941196 6.52122116 141.46374321 C6.51920069 145.63103795 6.50689735 149.79818527 6.48688889 153.96543121 C6.48108537 155.48832101 6.47857864 157.01122778 6.47974396 158.53412819 C6.48995226 180.01062806 6.48995226 180.01062806 1.1875 188.0625 C-2.22491047 190.98742326 -5.32557605 191.60978524 -9.8203125 191.40625 C-13.28749106 190.80799174 -15.23438089 189.40079408 -17.8125 187.0625 C-22.96671896 177.82045222 -21.96642843 167.05491939 -21.97363281 156.79321289 C-21.9782678 155.2500039 -21.98329336 153.70679604 -21.98867798 152.16358948 C-22.00173387 147.99003871 -22.00823293 143.81650397 -22.01268864 139.64293599 C-22.01562892 137.03167906 -22.01973537 134.42042643 -22.02419281 131.80917168 C-22.0378465 123.62767975 -22.04752494 115.44619775 -22.0513947 107.26469523 C-22.05587777 97.84056794 -22.07344614 88.41658552 -22.1023953 78.99250227 C-22.12403849 71.69204542 -22.1341003 64.39162927 -22.13543582 57.09114069 C-22.13648146 52.73753836 -22.14233859 48.38407261 -22.16025543 44.03050423 C-22.17678306 39.93544718 -22.178869 35.84062876 -22.17011642 31.74555016 C-22.1693487 30.24802637 -22.1736537 28.75048948 -22.18357468 27.25299835 C-22.29647435 9.14129924 -22.29647435 9.14129924 -16.25 2.0625 C-11.37466964 -1.93777107 -5.90875611 -1.96958537 0 0 Z " fill="#5F18EB" transform="translate(90.8125,143.9375)"/>
<path d="M0 0 C0.99 0 1.98 0 3 0 C6.25390105 35.0919001 9.39971491 70.19051733 12.3125 105.3125 C12.40936474 106.47952957 12.40936474 106.47952957 12.50818634 107.6701355 C12.94052479 112.88022953 13.37134561 118.09044718 13.80078125 123.30078125 C13.90782883 124.59925491 14.0148764 125.89772858 14.12516785 127.23554993 C14.27650932 129.08022102 14.27650932 129.08022102 14.4309082 130.9621582 C14.51717972 132.013293 14.60345123 133.0644278 14.69233704 134.14741516 C15.14086686 139.76394817 15.56786017 145.38218217 16 151 C7.09 151 -1.82 151 -11 151 C-11.22114257 141.60144075 -10.75797439 132.37136076 -10.0625 123 C-9.97564941 121.81881592 -9.88879883 120.63763184 -9.79931641 119.4206543 C-9.12863871 110.73593599 -9.12863871 110.73593599 -8.49780273 107.12695312 C-7.90670179 103.41394629 -7.68570214 99.71845597 -7.5 95.96875 C-7.45939453 95.21460815 -7.41878906 94.46046631 -7.37695312 93.68347168 C-7.24811225 91.28913747 -7.12351829 88.89461432 -7 86.5 C-6.83718396 83.34353119 -6.66993438 80.18734271 -6.5 77.03125 C-6.46455078 76.31545776 -6.42910156 75.59966553 -6.39257812 74.86218262 C-6.17541519 70.83728674 -5.66178463 66.97070778 -5 63 C-4.801607 60.32031674 -4.63285666 57.65139776 -4.5 54.96875 C-4.45939453 54.21460815 -4.41878906 53.46046631 -4.37695312 52.68347168 C-4.24811225 50.28913747 -4.12351829 47.89461432 -4 45.5 C-3.83718396 42.34353119 -3.66993438 39.18734271 -3.5 36.03125 C-3.46455078 35.31545776 -3.42910156 34.59966553 -3.39257812 33.86218262 C-3.17554338 29.83966257 -2.6840635 25.96598861 -2 22 C-1.8748552 20.28716115 -1.78049783 18.57176283 -1.71875 16.85546875 C-1.68136719 15.93185547 -1.64398438 15.00824219 -1.60546875 14.05664062 C-1.53443925 12.12437518 -1.46414107 10.19208273 -1.39453125 8.25976562 C-1.33845703 6.88401367 -1.33845703 6.88401367 -1.28125 5.48046875 C-1.23581055 4.22592896 -1.23581055 4.22592896 -1.18945312 2.94604492 C-1 1 -1 1 0 0 Z " fill="#621EEB" transform="translate(415,141)"/>
</svg>
