<svg id="Layer_1" data-name="Layer 1" xmlns="http://www.w3.org/2000/svg" viewBox="0 0 3644.6 718.11"><defs><style>.cls-1{fill:#fff;}</style></defs><path class="cls-1" d="M-649.66,1343.74q-84.47,0-129.09-51t-44.63-147.51V810.56q0-90.45,44.23-137.3t129.49-46.83q85.26,0,129.49,46.83t44.24,137.3V1145.2q0,96.48-44.64,147.51T-649.66,1343.74Zm1.2-129.69q32,0,32-62V808.16q0-52-31.23-52-35.22,0-35.22,53.24v343.45q0,32.82,8,47T-648.46,1214.05Z" transform="translate(823.38 -625.63)"/><path class="cls-1" d="M-439.51,1337.34l75.66-373.47-60-331.43h137.7l36.43,242.17,32.42-242.17h138.1l-60,331.43L-64,1337.34h-142.5L-251,1061.94l-45.64,275.4Z" transform="translate(823.38 -625.63)"/><path class="cls-1" d="M-41.62,1337.34l68-704.5h239l66.84,704.5H199l-10-113.68H104.08l-8.81,113.68Zm155.71-226.16h64L147.31,752.92h-6.4Z" transform="translate(823.38 -625.63)"/><path class="cls-1" d="M388.68,839.38l26.42-94.46H364.27V625.63H514V741.31l-40.83,98.07Z" transform="translate(823.38 -625.63)"/><path class="cls-1" d="M565.61,1337.34V632.84H781.76q54,0,81.66,24.61t37,68.85q9.4,44.24,9.4,103.88,0,57.63-14.61,92.06t-55,47.64q33.21,6.81,46.63,33t13.41,67.85v266.59H761.35v-275.8q0-30.81-12.61-38.23t-40.63-7.4v321.43Zm143.3-443.52h34q29.2,0,29.22-63.64,0-41.23-6.41-54t-24-12.81H708.91Z" transform="translate(823.38 -625.63)"/><path class="cls-1" d="M956.29,1337.34V632.84h281.8V768.93h-138.5v137.3h132.89v132.5H1099.59V1200h147.7v137.3Z" transform="translate(823.38 -625.63)"/><path class="cls-1" d="M1293.73,1337.34V632.84h190.93q76.86,0,111.88,37.42t35,123.49v30.82q0,49.65-17.81,80.46t-54.24,40.43q47.63,12,63.84,56.24t16.22,107.88q0,68.45-12.81,119.68t-46.44,79.66q-33.61,28.42-95.67,28.42Zm137.7-439.11h28.82q19.61,0,25.21-15.22t5.61-36.42V775.74q0-34-30-34h-29.62Zm14,315q54.82,0,54.84-52v-88.06q0-30-9-47.43t-33.82-17.42h-26v204.15Q1440.22,1213.26,1445.44,1213.25Z" transform="translate(823.38 -625.63)"/><path class="cls-1" d="M1854.13,1343.74q-84.47,0-129.09-51T1680.4,1145.2V810.56q0-90.45,44.24-137.3t129.49-46.83q85.26,0,129.49,46.83t44.23,137.3V1145.2q0,96.48-44.63,147.51T1854.13,1343.74Zm1.2-129.69q32,0,32-62V808.16q0-52-31.22-52-35.24,0-35.23,53.24v343.45q0,32.82,8,47T1855.33,1214.05Z" transform="translate(823.38 -625.63)"/><path class="cls-1" d="M2084.69,1337.34V632.84h216.16q54,0,81.66,24.61t37,68.85q9.41,44.24,9.41,103.88,0,57.63-14.61,92.06t-55,47.64q33.23,6.81,46.63,33t13.41,67.85v266.59h-138.9v-275.8q0-30.81-12.61-38.23t-40.62-7.4v321.43ZM2228,893.82h34q29.22,0,29.22-63.64,0-41.23-6.4-54t-24-12.81H2228Z" transform="translate(823.38 -625.63)"/><path class="cls-1" d="M2475.37,1337.34V632.84h144.91l64.84,337.44V632.84h136.1v704.5h-137.7l-70.45-352.25v352.25Z" transform="translate(823.38 -625.63)"/></svg>